<?xml version="1.0" encoding="UTF-8" standalone="no"?>
<!-- Created with Inkscape (http://www.inkscape.org/) -->

<svg
   width="108.88464mm"
   height="82.393135mm"
   viewBox="0 0 108.88464 82.393135"
   version="1.1"
   id="svg5"
   xml:space="preserve"
   inkscape:version="1.2 (dc2aedaf03, 2022-05-15)"
   sodipodi:docname="logo_PP..svg"
   xmlns:inkscape="http://www.inkscape.org/namespaces/inkscape"
   xmlns:sodipodi="http://sodipodi.sourceforge.net/DTD/sodipodi-0.dtd"
   xmlns="http://www.w3.org/2000/svg"
   xmlns:svg="http://www.w3.org/2000/svg"><sodipodi:namedview
     id="namedview7"
     pagecolor="#ffffff"
     bordercolor="#000000"
     borderopacity="0.25"
     inkscape:showpageshadow="2"
     inkscape:pageopacity="0.0"
     inkscape:pagecheckerboard="0"
     inkscape:deskcolor="#d1d1d1"
     inkscape:document-units="mm"
     showgrid="false"
     inkscape:zoom="0.19554223"
     inkscape:cx="-1004.898"
     inkscape:cy="-130.40661"
     inkscape:window-width="1920"
     inkscape:window-height="1051"
     inkscape:window-x="0"
     inkscape:window-y="0"
     inkscape:window-maximized="1"
     inkscape:current-layer="layer1" /><defs
     id="defs2" /><g
     inkscape:label="Calque 1"
     inkscape:groupmode="layer"
     id="layer1"
     transform="translate(-23.168807,-199.51225)"><path
       style="fill:#cea512;stroke:none;stroke-width:0.264583;fill-opacity:1"
       d="m 23.168807,254.03199 c 9.016709,-2.57757 18.576132,-5.14535 27.781251,-1.4277 7.608623,3.07288 8.860896,10.38358 14.046729,15.97978 10.387013,11.20881 25.379893,15.81811 40.192853,12.00415 6.95881,-1.7915 14.29518,-5.79517 15.34584,-13.59165 -6.87996,4.70429 -12.24201,9.4832 -20.902088,10.58333 v -22.75416 c 7.924268,0 16.738078,1.33773 23.547918,-3.55283 2.63552,-1.89283 4.68577,-4.40928 6.14998,-7.29509 7.91977,-15.60909 -2.56461,-33.19224 -16.99789,-40.40981 -15.221222,-7.61159 -34.164331,-4.24239 -46.03354,7.86632 -2.6162,2.66886 -4.736306,5.75893 -6.578864,8.99557 -0.879476,1.54491 -1.417373,3.93251 -2.758282,5.12313 -3.179233,2.82284 -8.01079,4.45744 -11.568906,6.87414 -8.450819,5.7404 -16.550085,13.0257 -22.225001,21.60482 M 126.6209,223.34032 c -2.5744,-1.81187 -4.55851,-3.71449 -7.67292,-4.64661 -2.40877,-0.72073 -5.65706,-0.31565 -7.865,-1.33377 -1.07554,-0.49556 -1.62508,-2.37066 -2.32914,-3.28004 -1.31498,-1.69915 -3.01519,-3.21098 -4.88711,-4.26614 -7.144019,-4.02775 -16.737811,-2.61302 -24.606255,-2.61302 2.859881,-2.36062 7.800975,-3.05277 11.377084,-3.4806 14.138541,-1.69201 30.303791,6.05023 35.983341,19.62018 M 73.968808,210.37574 V 271.2299 C 57.919712,261.20167 54.414247,237.05341 63.703239,221.48824 c 2.363788,-3.96135 5.917936,-9.1747 10.265569,-11.1125 m 29.633332,7.14375 h -9.789581 v 23.01875 h -13.49375 v -27.78125 c 7.298002,0 18.417117,-2.14101 23.283331,4.7625 m 2.11667,5.29166 c 0.4363,5.52715 0.52917,14.02742 -6.085418,16.13959 v -16.13959 h 6.085418 m -6.085418,26.72292 c 0,-1.11178 -0.391848,-3.15145 0.271992,-4.0984 0.678396,-0.96784 2.677056,-1.26417 3.696756,-1.80789 2.07857,-1.10887 3.95076,-2.78924 5.3549,-4.67704 3.50706,-4.71514 3.11177,-10.59048 3.11177,-16.13959 3.25438,0.1397 7.32552,1.20571 9.76683,3.49039 5.73088,5.36416 4.74795,14.95848 -0.77099,20.03292 -5.37448,4.94136 -14.72539,3.19961 -21.431258,3.19961 M 55.712558,231.01324 c -1.271588,6.55717 -1.350963,12.76535 0,19.31458 -7.527396,-3.08822 -13.899886,-3.93012 -21.960417,-2.91042 1.644491,-2.33441 4.158774,-4.20872 6.35,-6.01927 4.678362,-3.86582 9.967383,-8.03486 15.610417,-10.38489 m 38.100001,15.08125 v 31.75 c -3.457575,0 -6.761957,-0.50007 -10.054167,-1.58777 -0.942446,-0.31141 -2.568046,-0.58446 -3.167592,-1.45468 -1.08241,-1.57136 -0.271991,-5.9227 -0.271991,-7.80547 v -20.90208 z"
       id="path304" /><path
       style="fill:#000000;stroke-width:0.264583"
       id="path248"
       d="" /></g></svg>
