<?xml version="1.0" encoding="UTF-8" standalone="no"?>
<!-- Created with Inkscape (http://www.inkscape.org/) -->

<svg
   width="4.9386306mm"
   height="3.5943248mm"
   viewBox="0 0 4.9386306 3.5943248"
   version="1.1"
   id="svg3191"
   inkscape:version="1.2 (dc2aedaf03, 2022-05-15)"
   sodipodi:docname="mini_dg.svg"
   xmlns:inkscape="http://www.inkscape.org/namespaces/inkscape"
   xmlns:sodipodi="http://sodipodi.sourceforge.net/DTD/sodipodi-0.dtd"
   xmlns="http://www.w3.org/2000/svg"
   xmlns:svg="http://www.w3.org/2000/svg">
  <sodipodi:namedview
     id="namedview3193"
     pagecolor="#ffffff"
     bordercolor="#000000"
     borderopacity="0.25"
     inkscape:showpageshadow="2"
     inkscape:pageopacity="0.0"
     inkscape:pagecheckerboard="0"
     inkscape:deskcolor="#d1d1d1"
     inkscape:document-units="mm"
     showgrid="false"
     inkscape:zoom="6.2573513"
     inkscape:cx="9.4289097"
     inkscape:cy="34.119868"
     inkscape:window-width="1920"
     inkscape:window-height="1051"
     inkscape:window-x="0"
     inkscape:window-y="0"
     inkscape:window-maximized="1"
     inkscape:current-layer="layer1" />
  <defs
     id="defs3188" />
  <g
     inkscape:label="Calque 1"
     inkscape:groupmode="layer"
     id="layer1"
     transform="translate(-56.896858,-146.87181)">
    <path
       inkscape:connector-curvature="0"
       id="path2932"
       d="m 61.568236,150.35492 -0.055,0.0197 -0.13728,-0.21491 c -0.0754,-0.1182 -0.13913,-0.2357 -0.14139,-0.2611 -0.003,-0.0254 0.009,-0.0473 0.0247,-0.0487 0.0159,-0.002 0.0272,-0.0225 0.025,-0.047 l -0.004,-0.0445 -0.0595,0.0663 -0.0595,0.0663 -0.1188,-0.11487 c -0.0653,-0.0632 -0.11469,-0.13097 -0.10965,-0.15063 0.007,-0.0219 -0.008,-0.0276 -0.0335,-0.0149 -0.0275,0.0135 -0.10305,-0.029 -0.21317,-0.11994 -0.0938,-0.0775 -0.17154,-0.15284 -0.17284,-0.16755 -0.002,-0.0147 -0.0268,-0.0426 -0.0565,-0.062 -0.0297,-0.0194 -0.10648,-0.0561 -0.17043,-0.0816 l -0.11628,-0.0462 -0.0677,0.0535 -0.0678,0.0535 -0.0277,-0.0371 -0.0277,-0.0371 -0.0628,0.0351 c -0.0426,0.0238 -0.0512,0.0409 -0.0266,0.0533 0.0199,0.01 0.035,0.004 0.0335,-0.0124 -0.002,-0.0168 0.0119,-0.0319 0.0297,-0.0335 0.0224,-0.002 0.0225,0.0115 3.9e-4,0.0437 -0.0177,0.0256 -0.0515,0.0483 -0.075,0.0503 -0.0287,0.003 -0.0351,0.0197 -0.0194,0.0518 0.0129,0.0264 0.0138,0.0399 0.003,0.0301 -0.0117,-0.01 -0.0651,0.005 -0.11868,0.0333 -0.0536,0.0281 -0.10299,0.0517 -0.10994,0.0523 -0.007,6.3e-4 -0.007,-0.0126 0.003,-0.0294 0.009,-0.0176 -0.0193,-0.0276 -0.066,-0.0238 -0.0447,0.004 -0.0692,-0.004 -0.0542,-0.017 0.0149,-0.0131 0.0247,-0.0498 0.022,-0.0817 -0.003,-0.0318 0.0166,-0.0837 0.0431,-0.11553 0.0266,-0.0318 0.0412,-0.0636 0.0327,-0.0709 -0.009,-0.007 -0.0398,0.003 -0.0693,0.022 -0.0295,0.0193 -0.1014,0.0317 -0.15988,0.0274 l -0.10633,-0.008 -0.0214,0.0712 -0.0214,0.0712 -0.007,-0.0525 c -0.004,-0.0331 -0.0241,-0.0475 -0.0539,-0.039 -0.026,0.008 -0.052,0.0337 -0.0578,0.0583 l -0.0105,0.0447 0.0446,-0.0439 c 0.0252,-0.0249 0.0457,-0.0309 0.0473,-0.0139 0.002,0.0166 0.0134,0.052 0.0265,0.0788 0.0163,0.0332 0.0125,0.0431 -0.0118,0.0308 -0.0196,-0.01 -0.0344,-0.004 -0.0328,0.0147 0.002,0.0194 0.0255,0.0231 0.0589,0.01 l 0.056,-0.0234 -0.0132,0.0468 c -0.008,0.0257 0,0.0456 0.0162,0.0442 0.0163,-0.002 0.0347,-0.0195 0.0411,-0.04 l 0.0115,-0.0375 0.0345,0.0407 0.0345,0.0407 -0.009,-0.10846 c -0.005,-0.0599 0.005,-0.10973 0.0229,-0.1113 0.0196,-0.002 0.031,0.0368 0.0292,0.0994 -0.002,0.0563 0.007,0.10135 0.0193,0.10027 0.0122,-8e-4 0.0373,0.0214 0.056,0.0499 l 0.034,0.0518 -0.0843,0.004 c -0.0464,0.002 -0.0927,-0.004 -0.10302,-0.0124 -0.0102,-0.008 -0.0652,-0.007 -0.12212,0.005 -0.0568,0.0115 -0.12566,0.0354 -0.15287,0.0533 -0.0272,0.0178 -0.0942,0.0364 -0.1491,0.0413 l -0.0997,0.008 -0.0681,0.10808 c -0.0376,0.0594 -0.10175,0.12893 -0.14272,0.15439 -0.041,0.0254 -0.0892,0.0424 -0.10732,0.0377 -0.0181,-0.005 -0.0474,0.0125 -0.0652,0.0383 l -0.0324,0.0469 -0.0543,-0.0232 -0.0543,-0.0232 -0.0124,0.0437 -0.0125,0.0437 -0.16867,3.8e-4 -0.16865,3.8e-4 -0.10286,-0.0993 c -0.0643,-0.062 -0.0987,-0.11886 -0.0916,-0.15133 0.007,-0.0313 -0.003,-0.0508 -0.0269,-0.0489 -0.0209,0.002 -0.10586,-0.0216 -0.18868,-0.0517 -0.0828,-0.0302 -0.20797,-0.10303 -0.27812,-0.16201 -0.0701,-0.059 -0.16064,-0.16109 -0.20103,-0.22692 -0.0404,-0.0659 -0.0912,-0.17054 -0.11285,-0.23273 -0.0217,-0.0622 -0.0496,-0.19738 -0.0621,-0.30044 -0.0124,-0.10308 -0.0171,-0.23378 -0.0105,-0.29046 0.007,-0.0567 0.0234,-0.14339 0.0371,-0.19267 0.0138,-0.0493 0.0687,-0.16233 0.12235,-0.25116 0.0536,-0.0889 0.13075,-0.18737 0.17156,-0.21898 0.0408,-0.0317 0.0959,-0.0809 0.12238,-0.1096 0.0265,-0.0287 0.11669,-0.0805 0.20043,-0.11527 l 0.1522,-0.0632 0.24053,-0.005 c 0.1323,-0.004 0.32029,0.007 0.41776,0.0217 0.0975,0.0148 0.2032,0.0344 0.23494,0.0434 l 0.0577,0.0166 -0.0517,-0.0613 c -0.0284,-0.0337 -0.11845,-0.0969 -0.20011,-0.14031 -0.0817,-0.0434 -0.20235,-0.10039 -0.26823,-0.12657 -0.066,-0.0262 -0.15456,-0.0736 -0.1971,-0.1053 -0.0425,-0.0317 -0.11589,-0.0626 -0.16305,-0.0686 l -0.0857,-0.0109 0.0396,-0.0473 0.0395,-0.0473 0.12056,0.01 c 0.0663,0.005 0.1216,0.0214 0.1229,0.0359 0.002,0.0145 0.0328,0.0237 0.0703,0.0203 0.0373,-0.004 0.12188,0.0255 0.18781,0.064 0.066,0.0385 0.15759,0.0828 0.20369,0.0983 0.0461,0.0155 0.14103,0.0724 0.21095,0.12637 0.0698,0.0539 0.15561,0.14338 0.19043,0.19876 l 0.0633,0.1007 0.21774,0.0627 c 0.11975,0.0344 0.22913,0.0777 0.24305,0.0962 l 0.0254,0.0335 0.0948,-0.05 c 0.0521,-0.0274 0.0999,-0.0407 0.10614,-0.0295 0.007,0.0112 0.0752,0.054 0.15338,0.0951 0.0781,0.0411 0.22152,0.14935 0.31866,0.2406 0.11561,0.10861 0.18655,0.20125 0.20539,0.26816 0.0158,0.0563 0.047,0.10613 0.0696,0.11085 0.0225,0.005 0.0614,0.0131 0.0867,0.0186 l 0.0459,0.01 -0.026,0.061 c -0.0143,0.0335 -0.0451,0.0627 -0.0683,0.0648 -0.0233,0.002 -0.0411,0.019 -0.0394,0.0376 0.002,0.0187 0.0274,0.0565 0.0573,0.0841 l 0.0543,0.0502 -0.0398,0.0311 -0.0398,0.0311 0.0661,0.0449 c 0.0364,0.0247 0.0839,0.0731 0.10561,0.10755 0.0217,0.0344 0.0334,0.0747 0.0261,0.0893 -0.008,0.0147 0.0404,0.0429 0.1062,0.0626 0.0658,0.0198 0.12057,0.0474 0.12181,0.0613 0.002,0.0139 0.0505,0.0523 0.10961,0.0852 0.059,0.0328 0.11755,0.0851 0.13004,0.11603 0.0125,0.0309 0.07,0.0979 0.12801,0.14888 0.0578,0.0509 0.13573,0.14892 0.1729,0.21774 0.0372,0.0688 0.10828,0.19604 0.15802,0.28275 0.0498,0.0867 0.0915,0.16997 0.0928,0.18502 0.002,0.0151 -0.0223,0.0362 -0.0524,0.047 z m -3.3634,-0.43716 c 0.0577,-0.016 0.11996,-0.0402 0.13825,-0.0539 0.0182,-0.0137 0.0508,-0.0127 0.0724,0.003 l 0.0391,0.027 0.0714,-0.0792 c 0.0395,-0.0436 0.071,-0.0855 0.0703,-0.093 -6.5e-4,-0.008 -0.0299,-0.005 -0.065,0.006 -0.035,0.0109 -0.1911,0.0371 -0.34671,0.0579 -0.15561,0.0208 -0.28908,0.0452 -0.29661,0.0541 -0.008,0.008 0.0371,0.0369 0.0991,0.062 l 0.11276,0.0457 z m 2.62664,-0.43777 c 0.007,-6.3e-4 0.0192,-0.0139 0.0269,-0.0295 0.008,-0.0156 3.9e-4,-0.0354 -0.0168,-0.0439 -0.017,-0.008 -0.0292,0.005 -0.0269,0.0296 0.003,0.0248 0.01,0.0446 0.0168,0.0439 z m -2.69891,0.12347 c 0.007,-6.2e-4 0.0196,-0.0149 0.028,-0.0316 0.009,-0.0168 0.002,-0.0292 -0.0153,-0.0278 -0.0168,0.002 -0.0295,0.0157 -0.028,0.0317 0.002,0.0159 0.009,0.0284 0.0153,0.0278 z m 0.15514,-0.0143 c 0.005,0 -3.8e-4,-0.0127 -0.0115,-0.0277 -0.0112,-0.0151 -0.036,-0.0257 -0.0548,-0.0238 -0.0206,0.003 -0.0161,0.0131 0.0115,0.0277 0.0253,0.0132 0.0499,0.024 0.0548,0.0238 z m -0.30317,-0.004 c 0.0307,-0.002 0.047,-0.01 0.0366,-0.0186 -0.0104,-0.008 -0.0355,-0.008 -0.0556,0.003 -0.0222,0.0114 -0.0148,0.0175 0.019,0.0159 z m 1.00761,-0.14562 c 0.007,-6.3e-4 0.0196,-0.0149 0.028,-0.0316 0.009,-0.0168 0.002,-0.0292 -0.0153,-0.0278 -0.0168,0.002 -0.0295,0.0157 -0.028,0.0317 0.002,0.0159 0.009,0.0284 0.0153,0.0278 z m 1.46293,-0.26469 c 0.0214,-0.0104 0.0446,-0.0394 0.0517,-0.0643 0.007,-0.0249 0.005,-0.0558 -0.005,-0.069 -0.01,-0.0131 -0.0351,-0.0151 -0.0565,-0.005 -0.0214,0.0104 -0.0447,0.0394 -0.0517,0.0643 -0.007,0.0249 -0.005,0.0558 0.005,0.069 0.01,0.0131 0.0351,0.0151 0.0565,0.005 z m -1.85249,0.12457 c 0.0397,-0.004 0.0712,-0.0194 0.0697,-0.0353 -0.002,-0.0159 -0.035,-0.026 -0.0748,-0.0225 -0.0397,0.004 -0.0712,0.0194 -0.0697,0.0353 0.002,0.0159 0.035,0.026 0.0749,0.0224 z m 1.6673,-0.16698 c 0.0115,-0.009 0.0196,-0.0311 0.0177,-0.0502 -0.002,-0.0189 -0.0395,-0.0475 -0.0836,-0.0634 -0.0442,-0.016 -0.0847,-0.0238 -0.0899,-0.0176 -0.005,0.006 0.0229,0.0418 0.0626,0.0792 0.0396,0.0373 0.0817,0.0607 0.0931,0.052 z m -0.43854,-0.0888 0.0854,-0.007 -0.0347,-0.029 c -0.0249,-0.0209 -0.0491,-0.0189 -0.0854,0.007 l -0.0506,0.0358 z m -1.86482,0.13267 c 0.063,-0.004 0.11347,-0.0192 0.11201,-0.0358 -0.002,-0.0165 -0.0389,-0.0604 -0.0833,-0.0974 l -0.0806,-0.0675 -0.0761,0.0262 c -0.0418,0.0144 -0.11121,0.0366 -0.15414,0.0493 -0.043,0.0127 -0.0765,0.0411 -0.0746,0.0631 0.003,0.0243 0.0348,0.0375 0.0832,0.0335 0.0437,-0.004 0.0974,0.003 0.11915,0.0138 0.0219,0.0112 0.0912,0.0179 0.15428,0.0148 z m 0.7624,-0.2584 c 0.0311,-0.0111 0.0554,-0.0322 0.0541,-0.0468 -0.002,-0.0147 -0.0269,-0.0104 -0.0574,0.01 -0.0303,0.0199 -0.0546,0.0409 -0.054,0.0468 5.5e-4,0.006 0.0264,0.002 0.0574,-0.01 z m -0.41269,-0.52538 c 0.007,-6.3e-4 0.0196,-0.0149 0.028,-0.0317 0.009,-0.0168 0.002,-0.0292 -0.0153,-0.0278 -0.0168,0.002 -0.0295,0.0157 -0.028,0.0316 0.002,0.0159 0.009,0.0284 0.0153,0.0278 z m -0.14711,-0.0161 c 0.007,-6.2e-4 0.0196,-0.0148 0.0281,-0.0317 0.009,-0.0167 0.002,-0.0292 -0.0153,-0.0278 -0.0168,0.002 -0.0295,0.0157 -0.028,0.0317 0.002,0.0159 0.009,0.0284 0.0153,0.0278 z m -0.21522,-0.12655 c 0.007,-6.2e-4 0.0196,-0.0148 0.028,-0.0316 0.009,-0.0168 0.002,-0.0292 -0.0153,-0.0278 -0.0168,0.002 -0.0295,0.0157 -0.028,0.0317 0.002,0.0159 0.009,0.0284 0.0153,0.0278 z m 0.17441,-0.0344 c 0.0225,-0.0111 0.0398,-0.0331 0.0384,-0.049 -0.002,-0.0159 -0.0225,-0.0192 -0.0467,-0.007 -0.0242,0.0119 -0.0503,0.0221 -0.0579,0.0229 -0.008,6.7e-4 -0.005,0.0131 0.007,0.0274 0.0108,0.0144 0.038,0.017 0.0606,0.006 z m -0.20002,-0.10896 c 0.0159,-0.002 0.0285,-0.009 0.0278,-0.0153 -6.3e-4,-0.007 -0.0149,-0.0196 -0.0317,-0.0281 -0.0168,-0.009 -0.0292,-0.002 -0.0278,0.0153 0.002,0.0168 0.0157,0.0295 0.0316,0.028 z m -0.15237,-0.0166 0.0382,-0.003 -0.0486,-0.0406 c -0.0268,-0.0223 -0.0902,-0.0511 -0.1411,-0.0639 l -0.0925,-0.0233 -0.0296,0.0354 -0.0296,0.0354 0.0564,-0.004 c 0.0311,-0.003 0.0907,0.0117 0.13241,0.0309 0.0417,0.0192 0.0932,0.0338 0.11425,0.0326 z m 0.37936,-0.0327 c 0.0168,-0.002 0.0295,-0.0157 0.028,-0.0317 -0.002,-0.0159 -0.009,-0.0284 -0.0153,-0.0278 -0.007,6.3e-4 -0.0196,0.0149 -0.028,0.0317 -0.009,0.0167 -0.002,0.0292 0.0153,0.0278 z m 1.72376,2.40754 c -0.0519,0.003 -0.11754,8.1e-4 -0.14601,-0.004 -0.0285,-0.005 -0.053,-0.0233 -0.0547,-0.0409 -0.002,-0.0177 -0.0325,-0.0587 -0.0688,-0.0909 -0.0363,-0.0324 -0.0838,-0.11418 -0.10564,-0.18189 -0.0218,-0.0677 -0.0481,-0.16124 -0.0584,-0.20788 -0.0125,-0.0567 -0.003,-0.10306 0.0307,-0.13993 l 0.0495,-0.0551 0.0376,0.0379 c 0.0206,0.0209 0.0303,0.0522 0.0216,0.0697 -0.009,0.0175 -0.0347,0.0335 -0.0576,0.0356 -0.0229,0.002 -0.0404,0.0173 -0.039,0.0339 0.002,0.0166 0.0247,0.0243 0.0515,0.0172 0.03,-0.008 0.0553,0.008 0.0655,0.0438 0.009,0.0312 0.032,0.0645 0.0505,0.0741 0.022,0.0114 0.017,0.0256 -0.0143,0.0408 -0.0264,0.013 -0.0454,0.0532 -0.0421,0.0895 0.003,0.0362 0.0334,0.0944 0.0673,0.12932 0.0338,0.0348 0.071,0.0519 0.0826,0.038 0.0117,-0.0139 0.007,-0.0331 -0.0115,-0.0427 -0.0181,-0.01 -0.0527,-0.0483 -0.0771,-0.0863 l -0.0443,-0.069 0.0438,0.0302 c 0.0242,0.0166 0.10371,0.0763 0.17685,0.13277 0.0731,0.0564 0.1337,0.11113 0.13464,0.12153 6.7e-4,0.0104 -0.0407,0.0211 -0.0925,0.0239 z m 0.75751,-0.61762 c -0.005,4.2e-4 -0.0179,-0.007 -0.0292,-0.0165 -0.0113,-0.01 -0.0628,-0.0119 -0.1146,-0.005 -0.0517,0.007 -0.1665,-0.0168 -0.25502,-0.0517 -0.0942,-0.0372 -0.18086,-0.0948 -0.20905,-0.13916 -0.0264,-0.0416 -0.0499,-0.0959 -0.0521,-0.12056 -0.003,-0.0246 6.8e-4,-0.0452 0.007,-0.0458 0.007,-5.5e-4 0.0501,0.0151 0.0978,0.0348 0.0477,0.0197 0.10866,0.034 0.13556,0.0317 0.0269,-0.003 0.0572,0.007 0.0671,0.0201 0.01,0.0133 0.0502,0.0294 0.0894,0.0356 0.0392,0.006 0.12707,0.0412 0.19527,0.0776 l 0.12403,0.0663 -0.0239,0.0561 c -0.0132,0.0308 -0.0278,0.0564 -0.0325,0.0569 z m -0.57737,-0.41488 c -0.0343,0.004 -0.0618,-0.0133 -0.0641,-0.038 -0.003,-0.0238 -0.0177,-0.0422 -0.0345,-0.0407 -0.0168,0.002 -0.023,-0.0125 -0.0137,-0.031 0.0118,-0.0235 0.0254,-0.0224 0.0447,0.004 0.0153,0.0203 0.0433,0.0357 0.0626,0.034 0.0191,-0.002 0.0416,0.0127 0.0501,0.0319 0.009,0.0205 -0.01,0.0373 -0.045,0.0404 z m 0.59354,-0.58888 c -0.0515,0.007 -0.0944,0.004 -0.0955,-0.009 -6.8e-4,-0.0122 0.0264,-0.0346 0.0611,-0.0499 0.0347,-0.0152 0.076,-0.0303 0.0917,-0.0334 0.0157,-0.004 0.0303,0.0133 0.0324,0.0367 0.003,0.0277 -0.0289,0.047 -0.0898,0.0556 z m 0.0161,-0.16561 c -0.0189,0.003 -0.0435,-0.009 -0.0548,-0.0233 -0.0112,-0.015 -3.8e-4,-0.0291 0.0247,-0.0313 0.0248,-0.003 0.0438,-0.0179 0.0423,-0.0349 -0.002,-0.0177 -0.0268,-0.0209 -0.059,-0.008 -0.0322,0.0135 -0.0573,0.0102 -0.059,-0.008 -0.002,-0.0169 0.0242,-0.0332 0.0569,-0.0362 0.0329,-0.004 0.0872,0.007 0.1208,0.0207 l 0.0611,0.026 -0.0495,0.0449 c -0.0272,0.0247 -0.0649,0.0466 -0.0837,0.0488 z m -0.14062,-0.26527 -0.0502,0.0243 0.0325,-0.0392 c 0.0178,-0.0215 0.0404,-0.0324 0.0502,-0.0243 0.01,0.009 -0.005,0.0256 -0.0324,0.0392 z m 0.0814,-0.1144 -0.0289,0.0479 -0.0266,-0.0764 c -0.0146,-0.042 -0.0205,-0.0884 -0.0132,-0.10307 0.008,-0.0147 0.0704,-0.0656 0.1402,-0.11312 0.0697,-0.0476 0.15044,-0.0886 0.17931,-0.0911 0.0289,-0.003 0.0594,-0.0185 0.0678,-0.0351 0.009,-0.0168 0.0357,-0.0323 0.0606,-0.0345 0.025,-0.003 0.0917,-0.0541 0.14838,-0.11518 0.0566,-0.0611 0.11597,-0.1123 0.13183,-0.11371 0.0159,-0.002 0.0299,0.01 0.0313,0.0255 0.002,0.0153 0.0213,0.0187 0.0443,0.008 0.0231,-0.0114 0.0408,-0.0328 0.0395,-0.048 -0.002,-0.0151 -0.0179,-0.0167 -0.0366,-0.004 -0.0188,0.0133 0.0351,-0.0661 0.11991,-0.17649 0.0848,-0.11043 0.17754,-0.22571 0.20609,-0.25622 0.0286,-0.0305 0.0641,-0.0492 0.0791,-0.0417 0.0151,0.008 0.0261,0 0.0246,-0.0169 -0.002,-0.0168 0.0102,-0.0318 0.0262,-0.0332 0.016,-0.002 0.0303,0.0137 0.032,0.0335 0.002,0.0199 -0.0438,0.11109 -0.10131,0.20267 -0.0574,0.0916 -0.17062,0.24916 -0.2516,0.35018 -0.081,0.10102 -0.16373,0.18516 -0.1839,0.18694 -0.0202,0.002 -0.0557,0.0387 -0.0788,0.082 -0.0277,0.0517 -0.0606,0.0756 -0.0965,0.0696 -0.0298,-0.005 -0.0534,0.003 -0.052,0.017 0.002,0.0145 -0.0115,0.0273 -0.0283,0.0289 -0.0168,0.002 -0.0236,-0.0109 -0.0153,-0.0278 0.009,-0.0168 0.003,-0.0294 -0.0122,-0.0281 -0.0151,0.002 -0.033,0.0218 -0.0397,0.0454 -0.007,0.0236 0.004,0.0478 0.0236,0.0539 0.0198,0.006 0.009,0.0144 -0.0234,0.0185 -0.0324,0.004 -0.072,0.0232 -0.088,0.0422 -0.016,0.019 -0.0785,0.0391 -0.1392,0.0445 -0.0664,0.006 -0.12173,0.0289 -0.13915,0.0578 z m 0.41556,-0.32173 c 0.0132,-8.1e-4 0.0417,-0.0164 0.0638,-0.0332 0.022,-0.0169 0.0307,-0.0387 0.0189,-0.0485 -0.0116,-0.01 -0.0404,0.005 -0.0639,0.0332 -0.0235,0.0281 -0.032,0.0499 -0.0189,0.0485 z m -0.6308,0.34793 c -0.0154,0.002 -0.029,-0.01 -0.0304,-0.0243 -0.002,-0.0147 -0.0257,-0.0307 -0.0541,-0.0355 l -0.0518,-0.009 0.0617,-0.009 c 0.0339,-0.005 0.0709,0.01 0.0821,0.033 0.0113,0.0231 0.008,0.0431 -0.008,0.0444 z m -0.34875,-0.2895 c -0.014,8e-4 -0.0285,-0.0315 -0.0322,-0.073 -0.004,-0.0469 0.0269,-0.11537 0.0829,-0.1822 l 0.0896,-0.10704 0.0995,-0.009 c 0.0547,-0.005 0.16162,-0.0339 0.23756,-0.0645 0.076,-0.0306 0.15295,-0.0572 0.17111,-0.0589 0.0182,-0.002 0.0422,0.0156 0.0535,0.0386 0.0113,0.0231 0.0148,0.0621 0.008,0.0867 -0.007,0.0247 -0.0341,0.0471 -0.0602,0.0501 -0.0261,0.003 -0.0703,0.0259 -0.0983,0.0513 -0.0367,0.0332 -0.0667,0.0395 -0.1073,0.0221 l -0.0564,-0.024 0.004,0.0444 c 0.003,0.0256 -0.0236,0.0486 -0.0607,0.0544 -0.0356,0.006 -0.084,0.0145 -0.10753,0.0198 -0.0236,0.005 -0.0731,0.0144 -0.1102,0.0201 -0.0411,0.006 -0.0713,0.0335 -0.0773,0.0695 -0.007,0.0326 -0.0215,0.0602 -0.0355,0.0614 z m 0.35606,-0.29392 c 0.0159,-0.002 0.0284,-0.009 0.0278,-0.0153 -6.4e-4,-0.007 -0.0149,-0.0196 -0.0316,-0.0281 -0.0168,-0.009 -0.0292,-0.002 -0.0278,0.0153 0.002,0.0168 0.0157,0.0295 0.0316,0.028 z m -0.8948,0.0134 c -0.0192,0.009 -0.0444,-0.004 -0.056,-0.0271 -0.0116,-0.0236 -0.0116,-0.0607 0,-0.0825 0.0115,-0.0218 0.0161,-0.10484 0.0104,-0.18444 -0.007,-0.0886 0.01,-0.19178 0.0412,-0.26592 0.0285,-0.0667 0.0796,-0.15823 0.11372,-0.20356 0.0342,-0.0453 0.099,-0.0937 0.14416,-0.10747 0.045,-0.0138 0.10091,-0.0152 0.12391,-0.004 l 0.0418,0.022 -0.0837,0.0743 c -0.0461,0.0409 -0.11052,0.12373 -0.14322,0.18416 -0.0427,0.0789 -0.0515,0.12674 -0.0311,0.16972 l 0.0284,0.0598 -0.0513,0.0555 c -0.0282,0.0305 -0.0492,0.0799 -0.0465,0.10979 0.003,0.0298 -0.0142,0.0636 -0.0376,0.0749 -0.0234,0.0114 -0.0372,0.0404 -0.0307,0.0643 0.007,0.024 -0.004,0.0508 -0.0233,0.0595 z"
       style="fill:#020202;fill-opacity:1;stroke-width:0.0290242" />
  </g>
</svg>
