<?xml version="1.0" encoding="UTF-8" standalone="no"?>
<!-- Created with Inkscape (http://www.inkscape.org/) -->

<svg
   width="152.72571mm"
   height="184.24045mm"
   viewBox="0 0 152.72571 184.24045"
   version="1.1"
   id="svg5"
   xml:space="preserve"
   sodipodi:docname="icon_IDR.svg"
   inkscape:version="1.2 (dc2aedaf03, 2022-05-15)"
   xmlns:inkscape="http://www.inkscape.org/namespaces/inkscape"
   xmlns:sodipodi="http://sodipodi.sourceforge.net/DTD/sodipodi-0.dtd"
   xmlns="http://www.w3.org/2000/svg"
   xmlns:svg="http://www.w3.org/2000/svg"><sodipodi:namedview
     id="namedview7"
     pagecolor="#ffffff"
     bordercolor="#000000"
     borderopacity="0.25"
     inkscape:showpageshadow="2"
     inkscape:pageopacity="0.0"
     inkscape:pagecheckerboard="0"
     inkscape:deskcolor="#d1d1d1"
     inkscape:document-units="mm"
     showgrid="false"
     inkscape:zoom="0.55307694"
     inkscape:cx="186.23087"
     inkscape:cy="178.09457"
     inkscape:window-width="1920"
     inkscape:window-height="1051"
     inkscape:window-x="0"
     inkscape:window-y="0"
     inkscape:window-maximized="1"
     inkscape:current-layer="layer1" /><defs
     id="defs2" /><g
     inkscape:label="Calque 1"
     inkscape:groupmode="layer"
     id="layer1"
     transform="translate(-32.444223,-29.010497)"><path
       style="fill:#1c1c1c;fill-opacity:1;stroke:none;stroke-width:0.183872;stroke-linecap:round;stroke-linejoin:round;stroke-miterlimit:10;paint-order:fill markers stroke;stop-color:#000000"
       d="m 102.64176,212.49625 c -0.0859,-2.33846 0.90948,-4.56973 4.40974,-9.88473 2.66261,-4.04307 4.86834,-8.76647 5.02857,-10.76831 0.068,-0.85022 0.61731,-2.68944 1.22055,-4.08716 1.59022,-3.68449 2.60923,-7.22177 2.44919,-8.50181 -0.0767,-0.61312 0.0282,-2.38251 0.23298,-3.932 0.44532,-3.36925 0.42922,-4.44945 -0.0638,-4.27731 -0.42601,0.14875 -2.84418,3.40859 -3.77918,5.09454 -1.17462,2.11802 -3.53382,5.29369 -4.76909,6.41958 -2.02844,1.84882 -5.0073,3.38373 -7.834803,4.03704 -3.851744,0.88997 -7.57389,2.30856 -11.58057,4.41364 -4.212252,2.21309 -9.946057,4.01516 -11.924992,3.74789 -3.084448,-0.41656 -10.360079,-4.55594 -14.337917,-8.15737 -5.975072,-5.40968 -8.589245,-10.65387 -10.126285,-20.31396 -1.073544,-6.74706 -0.621205,-14.34991 1.05338,-17.70505 2.508926,-5.02678 5.489037,-11.74125 5.366682,-12.09165 -0.196324,-0.56224 -3.10713,0.91183 -5.747493,2.9106 -1.149907,0.87049 -2.355723,1.67523 -2.679589,1.78832 -1.047459,0.36576 -3.398014,2.83601 -4.823095,5.0687 -0.764273,1.1974 -2.111529,2.88006 -2.993901,3.73924 -2.137156,2.08098 -2.98291,3.94457 -4.463374,9.83481 -1.830466,7.28278 -3.547552,10.87968 -4.734373,9.91744 -0.402378,-0.32623 0.38727,-4.7398 2.736796,-15.29678 1.424184,-6.39917 3.427631,-10.13178 7.900475,-14.71932 1.012733,-1.03869 2.48562,-2.61289 3.273079,-3.49822 2.94639,-3.31253 10.124015,-6.89616 14.831445,-7.405 l 2.132173,-0.23049 4.119877,-4.18248 c 2.374744,-2.41084 4.054097,-4.37088 3.964584,-4.62723 -0.09266,-0.26535 -1.278776,-0.45468 -2.940713,-0.46939 -1.531981,-0.0136 -3.042868,-0.11222 -3.357519,-0.21922 -0.389724,-0.13254 -3.388747,0.80746 -9.407478,2.94866 -10.009278,3.56085 -9.141767,3.02502 -12.771046,7.88853 -2.559119,3.42942 -4.420425,5.26097 -6.301894,6.20113 -0.755041,0.3773 -1.197673,0.52254 -0.983608,0.32281 0.214068,-0.19973 1.231908,-2.13315 2.261866,-4.29651 2.281227,-4.79156 5.595695,-9.78245 7.645927,-11.51315 2.227142,-1.88005 11.283932,-5.86795 15.444013,-6.80033 3.541299,-0.7937 5.371332,-0.78115 10.116145,0.0694 l 3.422487,0.61349 1.692848,-1.88305 c 1.003054,-1.11574 1.738211,-2.28181 1.804161,-2.86166 0.06121,-0.53824 0.572337,-1.62047 1.135839,-2.40496 l 1.02453,-1.42634 0.895433,0.47168 c 0.492493,0.25942 0.971839,0.44501 1.06522,0.4124 0.09337,-0.0326 0.644812,-0.85959 1.225409,-1.83773 1.668402,-2.81083 4.092317,-5.065753 7.207063,-6.704614 1.503397,-0.79103 2.97231,-1.446825 3.264238,-1.457324 1.00715,-0.03622 1.068057,-0.738264 0.305599,-3.522642 -1.090241,-3.981385 -0.932853,-6.064483 0.834941,-11.050662 1.406693,-3.967667 4.814932,-10.62779 6.82817,-13.343076 0.93042,-1.254879 4.3742,-4.518243 6.85425,-6.495171 1.42594,-1.13666 4.20974,-2.405368 4.35638,-1.985404 0.0367,0.10519 0.009,0.719508 -0.0617,1.365154 -0.0905,0.826958 -0.83557,2.040993 -2.52103,4.107783 -1.40717,1.725543 -2.67431,3.695175 -3.07664,4.782303 -0.37623,1.016633 -1.2905,3.051939 -2.03171,4.522917 -0.7412,1.470976 -1.51238,3.376957 -1.71373,4.235523 -0.20135,0.858564 -0.94357,2.817488 -1.64936,4.353162 -1.11451,2.424979 -1.30929,3.329702 -1.48124,6.880188 -0.21425,4.424193 -0.0858,5.282111 0.7951,5.308946 2.26264,0.06895 4.63192,-2.549493 5.05305,-5.584442 0.1083,-0.780457 0.63432,-2.254008 1.16894,-3.274556 0.53462,-1.020552 1.93786,-4.248538 3.11832,-7.1733 1.57007,-3.89005 2.34146,-5.385898 2.87325,-5.571587 0.89039,-0.310909 1.09262,-0.73256 2.81973,-5.878984 0.75552,-2.251281 1.65087,-4.358536 1.98966,-4.682781 0.45527,-0.435734 0.66154,-1.715668 0.7906,-4.905846 0.096,-2.373966 0.45072,-5.113298 0.78817,-6.087408 0.96347,-2.7812 0.78063,-3.893282 -1.81007,-11.009076 -1.76145,-4.838247 -2.34729,-6.818719 -2.48131,-8.388681 -0.0965,-1.130352 -0.30717,-2.439551 -0.46819,-2.90933 -0.50013,-1.459579 -0.12777,-2.074974 0.56435,-0.932429 0.33336,0.550296 1.23958,1.487753 2.01385,2.083242 0.77427,0.595493 1.69914,1.56242 2.05528,2.148718 0.35614,0.586309 2.04932,5.091083 3.76262,10.010617 3.09894,8.899093 3.11455,8.956858 3.01251,11.345381 -0.0564,1.320421 -0.38346,3.72092 -0.72675,5.334444 -0.34329,1.613523 -0.53424,3.195723 -0.42434,3.515996 0.50038,1.457251 -0.25159,4.44416 -2.0089,7.98208 -1.00659,2.026527 -1.91049,4.196346 -2.00866,4.821819 -0.22253,1.417645 -0.38377,1.67117 -3.23666,5.08881 -2.79115,3.343695 -3.54444,5.139497 -4.06697,9.695442 -0.37432,3.263815 -0.16723,4.485302 0.70863,4.179467 0.38214,-0.133434 4.34128,-4.976438 5.39113,-6.594682 0.30553,-0.470937 0.94721,-0.993025 1.42595,-1.160194 0.91174,-0.318362 1.81338,-1.392161 3.81628,-4.544958 0.66112,-1.040676 1.38023,-1.895583 1.59804,-1.899796 0.2178,-0.0042 0.59492,0.420337 0.83803,0.943435 0.38188,0.821535 0.23042,1.406639 -1.11174,4.296052 -1.3823,2.975809 -1.80879,4.758714 -1.20769,5.04867 0.53285,0.257036 2.18281,-1.83932 3.29437,-4.185648 1.37485,-2.902117 2.17082,-3.531133 2.66769,-2.108166 0.57988,1.660682 -0.42197,4.922745 -3.62158,11.792003 -2.80204,6.015695 -2.55579,6.913315 1.2693,4.626845 1.68383,-1.00651 2.31784,-1.64499 3.57483,-3.600023 0.84038,-1.307093 2.10985,-3.702136 2.82104,-5.322329 0.71118,-1.620191 1.6997,-3.310976 2.19671,-3.757301 0.497,-0.446334 1.73532,-2.121159 2.75181,-3.72185 1.01649,-1.600688 2.54623,-3.701842 3.39942,-4.669233 4.00074,-4.465095 5.55754,-4.526954 8.4527,-6.758451 2.08495,-1.607915 2.76206,-1.941124 6.78914,-3.340973 8.20691,-2.852766 16.03252,-5.132116 18.21242,-5.304642 4.5877,-0.36308 6.79496,-0.373291 7.3582,-0.03404 0.88854,0.535183 0.24685,1.125756 -2.13333,1.963371 -1.69449,0.596347 -2.07866,0.863473 -2.45047,1.70414 -0.58376,1.319851 -2.93736,2.493238 -4.24545,2.116563 -0.62671,-0.18047 -2.09171,0.05558 -4.67795,0.753753 -6.93406,1.87188 -9.14232,2.893587 -10.37733,4.801328 -0.27421,0.423575 -1.32061,1.351711 -2.32534,2.062522 -1.00473,0.710816 -2.64655,1.879232 -3.64851,2.596486 -1.00195,0.717249 -2.1815,1.429715 -2.62121,1.583256 -0.54088,0.188867 -1.16044,1.027472 -1.9155,2.59276 -0.89044,1.845923 -1.63457,2.771243 -3.68121,4.577558 -1.65377,1.459591 -2.58729,2.530938 -2.62744,3.015354 -0.0821,0.990431 -1.92573,3.713807 -4.46894,6.601335 -1.12893,1.281776 -2.75257,3.558156 -3.60809,5.058616 -0.85551,1.50045 -2.22022,3.4213 -3.0327,4.26857 -1.58023,1.6479 -1.72288,2.12129 -1.14115,3.78727 0.82586,2.36512 1.71959,2.35243 3.74357,-0.0532 0.69633,-0.82762 1.70516,-1.66084 2.24186,-1.85161 0.53674,-0.19059 1.16936,-0.69659 1.40594,-1.12406 2.5158,-4.54576 3.59369,-6.13613 4.7069,-6.94487 0.69787,-0.50699 1.86757,-1.7996 2.59934,-2.87245 0.73176,-1.072844 2.15128,-2.681173 3.15447,-3.574064 1.00321,-0.892884 2.5525,-2.538518 3.44288,-3.656977 3.82416,-4.803761 4.95424,-6.046487 6.05648,-6.660243 l 1.16818,-0.65047 -0.31268,1.561319 c -0.43061,2.150164 -6.55215,13.967145 -8.67517,16.746475 -0.95452,1.24962 -2.20976,3.09759 -2.78939,4.1066 -0.57964,1.00901 -1.42681,2.22881 -1.8826,2.71068 -0.4558,0.48187 -1.59434,1.91847 -2.53009,3.19244 -2.25271,3.06697 -4.24831,4.41162 -8.05068,5.42461 -1.5876,6.71158 -2.64739,8.75274 -3.70817,13.20973 -0.44389,1.56573 -1.07683,4.3004 -1.40655,6.07704 -0.32972,1.77665 -1.11522,4.37542 -1.74557,5.77507 -0.63036,1.39965 -1.24555,2.81737 -1.3671,3.1505 -0.1759,0.48211 0.12644,1.06547 1.48189,2.85928 1.4741,1.95085 1.91652,2.85285 3.29327,6.71443 1.34456,3.77141 1.65706,5.07437 2.02173,8.43064 0.70956,6.53037 0.48609,8.95914 -1.59201,17.3029 -1.26641,5.08472 -2.22924,7.31421 -3.32645,7.70258 -0.73289,0.25909 -0.88194,-3.13637 -0.3263,-7.42869 0.74567,-5.76016 0.77326,-6.89638 0.24519,-10.09826 -0.23047,-1.3975 -0.55265,-3.65586 -0.71594,-5.01855 -0.16572,-1.38293 -0.88347,-4.23949 -1.62445,-6.46513 -1.20863,-3.63025 -1.42825,-4.06902 -2.45055,-4.89796 -1.93835,-1.57157 -3.20012,-1.47339 -3.1163,0.24249 0.0308,0.62972 0.16148,3.60721 0.29046,6.61666 0.12899,3.00945 0.2905,6.74207 0.3589,8.29469 0.17059,3.87207 -0.34061,7.64061 -1.41482,10.43009 -0.4962,1.28854 -1.23887,3.45646 -1.65036,4.81763 -0.92355,3.05493 -3.99073,9.32233 -6.11623,12.49772 -0.87416,1.30596 -1.5409,2.51336 -1.48162,2.68312 0.0593,0.16977 -0.0194,0.35305 -0.17475,0.40731 -0.36621,0.12788 -2.40586,2.67488 -4.68736,5.85335 -1.52174,2.12003 -3.6562,4.58434 -4.10706,4.74177 -0.0667,0.0233 -0.13437,-0.31586 -0.15046,-0.75363 z"
       id="path317"
       sodipodi:nodetypes="cscsccsssssssssssssssssscscsscssssssssccssscsscssssssccsssssscsssssscscscssscsscscssssssscsssssssssscccsscssssssssssssssscsssssscsssssccsssscsscssssccssssssssscc" /></g></svg>
